<svg width="24" height="24" viewBox="0 0 24 24" fill="none" xmlns="http://www.w3.org/2000/svg">
<path d="M17.4481 16.8012L14.358 12.4166L18.52 7.72003C19.44 6.68002 19.92 5.24002 19.8 3.84005C19.6 1.20005 19.0401 0.280031 19 0.200062C18.92 0.0800156 18.8 0 18.68 0C18.52 0 18.4 0.0399844 18.32 0.159984L11.9993 9.06984L5.72002 0.159984C5.67998 0.0800156 5.52 0 5.4 0C5.24002 0 5.12002 0.0800156 5.07998 0.200016C4.99997 0.280031 4.47998 1.2 4.27997 3.84C4.15997 5.24002 4.63997 6.63998 5.55998 7.71998L9.62827 12.3645L6.51084 16.8022C4.55278 16.8491 3 18.4299 3 20.4C3 22.4 4.59998 24 6.6 24C8.60002 24 10.2 22.4 10.2 20.4C10.2 19.494 9.87089 18.6707 9.32573 18.0405L11.9677 15.0352L14.6374 18.083C14.1142 18.7076 13.8 19.5144 13.8 20.4C13.8 22.4 15.4 24 17.4 24C19.4 24 21 22.4 21 20.4C21 18.4162 19.4255 16.8267 17.4481 16.8012ZM6.6 23.2C5.04 23.2 3.80002 21.96 3.80002 20.4C3.80002 18.84 5.04 17.6 6.6 17.6C7.27486 17.6 7.88958 17.8324 8.37019 18.222C8.42152 18.2662 8.47177 18.3118 8.52 18.36C8.5417 18.3817 8.56345 18.4002 8.58595 18.416C9.09038 18.9209 9.40003 19.6205 9.40003 20.4C9.39998 21.96 8.16 23.2 6.6 23.2ZM8.80833 17.5504C8.42348 17.2527 7.97625 17.0312 7.48772 16.909L10.2 13.04L11.48 14.48L8.80833 17.5504ZM12.52 9.80002L18.56 1.28002C18.72 1.76002 18.92 2.60002 19 3.92002C19.08 5.12002 18.68 6.32002 17.92 7.2L13.8885 11.7504L12.9085 10.36L12.52 9.80002ZM5.07998 3.87998C5.16 2.59997 5.35997 1.75997 5.52 1.23998L11.639 9.90862C11.6489 9.94205 11.6621 9.97322 11.68 9.99998L13.52 12.64C13.5571 12.6772 13.5946 12.714 13.6398 12.7431L16.56 16.88C16.3565 16.9308 16.1603 17.0034 15.9712 17.0913C15.7083 17.204 15.4617 17.3466 15.2361 17.5155L6.15998 7.16002C5.4 6.27998 5.00002 5.07998 5.07998 3.87998ZM17.4 23.2C15.84 23.2 14.6 21.96 14.6 20.4C14.6 19.6131 14.9158 18.9079 15.4287 18.402C15.4469 18.3893 15.4643 18.3757 15.48 18.36C15.9258 17.9514 16.5095 17.6812 17.1351 17.6125C17.2223 17.6046 17.3106 17.6 17.4 17.6C18.96 17.6 20.2 18.84 20.2 20.4C20.2 21.96 18.96 23.2 17.4 23.2Z" fill="#8C8580"/>
<path d="M17.4 18.4C16.28 18.4 15.4 19.28 15.4 20.4C15.4 21.52 16.28 22.4 17.4 22.4C18.52 22.4 19.4 21.52 19.4 20.4C19.4 19.28 18.52 18.4 17.4 18.4ZM17.4 21.6C16.72 21.6 16.2 21.08 16.2 20.4C16.2 19.72 16.72 19.2 17.4 19.2C18.08 19.2 18.6 19.72 18.6 20.4C18.6 21.08 18.08 21.6 17.4 21.6Z" fill="#8C8580"/>
<path d="M6.59999 18.4C5.48001 18.4 4.59998 19.28 4.59998 20.4C4.59998 21.52 5.47996 22.4 6.59999 22.4C7.72002 22.4 8.60001 21.52 8.60001 20.4C8.60001 19.28 7.71998 18.4 6.59999 18.4ZM6.59999 21.6C5.91998 21.6 5.39999 21.08 5.39999 20.4C5.39999 19.72 5.91998 19.2 6.59999 19.2C7.28001 19.2 7.79999 19.72 7.79999 20.4C7.79999 21.08 7.28001 21.6 6.59999 21.6Z" fill="#8C8580"/>
</svg>
