<svg width="22" height="22" viewBox="0 0 22 22" fill="none" xmlns="http://www.w3.org/2000/svg">
<g clip-path="url(#clip0_6_341)">
<path d="M11 22C17.0751 22 22 17.0751 22 11C22 4.92487 17.0751 0 11 0C4.92487 0 0 4.92487 0 11C0 17.0751 4.92487 22 11 22Z" fill="#8C8580"/>
<path fill-rule="evenodd" clip-rule="evenodd" d="M4.97925 10.8839C8.18597 9.48678 10.3243 8.56571 11.3942 8.1207C14.449 6.85009 15.0838 6.62938 15.4975 6.62209C15.5885 6.62048 15.792 6.64304 15.9238 6.74998C16.035 6.84028 16.0657 6.96226 16.0803 7.04787C16.095 7.13348 16.1132 7.32851 16.0987 7.4809C15.9332 9.22026 15.2169 13.4412 14.8525 15.3893C14.6983 16.2137 14.3946 16.4901 14.1007 16.5171C13.4619 16.5759 12.9769 16.0949 12.3582 15.6894C11.39 15.0548 10.8431 14.6597 9.90332 14.0404C8.81728 13.3247 9.52131 12.9314 10.1402 12.2885C10.3022 12.1203 13.1168 9.56025 13.1712 9.32802C13.178 9.29897 13.1844 9.19071 13.12 9.13354C13.0557 9.07637 12.9608 9.09592 12.8923 9.11147C12.7952 9.13351 11.2486 10.1558 8.25243 12.1782C7.81343 12.4797 7.41579 12.6266 7.05952 12.6189C6.66677 12.6104 5.91126 12.3968 5.34962 12.2142C4.66074 11.9903 4.11324 11.8719 4.16091 11.4916C4.18575 11.2935 4.45852 11.091 4.97925 10.8839Z" fill="white"/>
</g>
<defs>
<clipPath id="clip0_6_341">
<rect width="22" height="22" fill="white"/>
</clipPath>
</defs>
</svg>
